<svg
  xmlns="http://www.w3.org/2000/svg"
  viewBox="0 0 512 512"
  fill="#000000"
>
  <g>
    {" "}
    <path
      d="M502.24,63.686c-3.855-4.005-9.729-6.016-15.587-6.016h-54.229V36.238C432.424,16.238,416.191,0,396.191,0 h-280.38c-20,0-36.191,16.238-36.191,36.238v21.432H25.346c-5.858,0-11.732,2.011-15.587,6.016 c-3.855,4.004-5.317,9.747-3.892,15.108l35.107,155.455v267.756c0,7.292,5.919,13.211,13.211,13.211h26.906V429.916 c0-7.292,5.919-13.211,13.211-13.211h67.525c7.292,0,13.211,5.919,13.211,13.211v131.026h104.23V429.916 c0-7.292,5.919-13.211,13.211-13.211h67.525c7.292,0,13.211,5.919,13.211,13.211v67.585h26.906c7.292,0,13.211-5.919,13.211-13.211 V234.248l35.107-155.455C507.557,73.434,506.095,67.69,502.24,63.686z M207.655,493.123H97.408V281.024h110.247V493.123z M315.729,493.123H225.486V281.024h90.243V493.123z M414.611,493.123h-50.748V281.024h50.748V493.123z M414.611,255.815h-63.994 V215.281h63.994V255.815z M100.127,215.281v40.534H36.133v-40.534H100.127z M85.035,493.123H25.346v-67.585h59.689V493.123z M140.993,429.916v-131.5h230.014v131.5H140.993z M381.007,429.916h-75.867v-131.5h75.867V429.916z M467.995,493.123 h-59.689v-67.585h59.689V493.123z"
    ></path>{" "}
  </g>{" "}
</svg>
