<svg xmlns="http://www.w3.org/2000/svg" shape-rendering="geometricPrecision" text-rendering="geometricPrecision" image-rendering="optimizeQuality" fill-rule="evenodd" clip-rule="evenodd" viewBox="0 0 305 512.302"><path d="M57.848 0h189.31c15.959 0 30.521 6.509 40.898 16.969C298.579 27.504 305 41.99 305 57.867v396.581c0 15.972-6.497 30.533-16.944 40.898-10.548 10.548-25.021 16.956-40.898 16.956H148.75a68.505 68.505 0 0010.357-1.944c9.723-2.597 19.281-7.392 28.68-14.841l1.295-1.003c8.593-7.475 13.997-17.484 17.28-28.407 2.934-9.722 4.154-20.29 4.515-30.177l.115-3.989h75.502V57.314H18.423v374.627H49.37L66.618 459.3l4.712 7.665c13.425 22.043 23.961 39.323 56.609 44.644l.546.096c1.531.241 3.061.438 4.585.597H57.848c-15.966 0-30.528-6.497-40.898-16.956C6.414 484.822 0 470.343 0 454.448V57.784c0-15.966 6.497-30.527 16.95-40.905C27.473 6.35 41.882 0 57.848 0zm38.274 322.54c6.434 0 11.736 4.274 11.736 10.967v70.066h7.101v-34.388c0-13.889 21.928-13.47 21.928.775v34.382l.349-.121h7.685v-27.314c0-13.895 21.922-13.469 21.922.775v25.377l.089.031 7.633-.044v-19.344c0-13.895 21.929-13.469 21.929.769 0 16.022.914 34.947.323 50.963-.647 17.572-4.255 37.342-17 48.436-16.181 13.127-32.35 16.588-49.128 13.94-30.178-4.751-37.824-23.269-52.164-46.011l-36.446-57.803c-2.248-5.264-1.937-8.839.305-11.113 9.684-6.293 25.453 7.068 42.93 25.942l.616-.146v-75.947c0-5.607 4.585-10.192 10.192-10.192zm151.322-1.582c5.386 0 9.92-4.375 9.92-9.913 0-5.385-4.382-9.913-9.92-9.913H140.431c-5.583 0-9.914 4.528-9.914 9.913 0 5.576 4.528 9.913 9.914 9.913h107.013zm-193.807-40.77h49.122a6.746 6.746 0 016.738 6.737v24.99c-3.957-2.267-8.554-3.493-13.375-3.493h-.101v-14.759H60.375v34.764h11.819a24.635 24.635 0 00-.382 4.305v9.171H53.637a6.746 6.746 0 01-6.738-6.738v-48.24a6.746 6.746 0 016.738-6.737zm0-89.956h49.122a6.745 6.745 0 016.738 6.738v48.239a6.746 6.746 0 01-6.738 6.738H53.637a6.746 6.746 0 01-6.738-6.738V196.97a6.745 6.745 0 016.738-6.738zm193.807 40.764c5.386 0 9.92-4.369 9.92-9.907 0-5.391-4.382-9.913-9.92-9.913H140.431c-5.583 0-9.914 4.522-9.914 9.913 0 5.576 4.528 9.907 9.914 9.907h107.013zM96.021 203.708H60.375v34.763h35.646v-34.763zM83.447 93.176h18.988l-13.946 56.228H62.217L48.271 93.176h18.982l7.646 35.715h.813l7.735-35.715zm23.484 28.158c0-10.256 1.925-17.737 5.76-22.449 3.836-4.706 10.764-7.062 20.786-7.062 10.014 0 16.943 2.356 20.779 7.062 3.842 4.712 5.76 12.193 5.76 22.449 0 5.1-.407 9.386-1.213 12.866-.813 3.48-2.204 6.51-4.185 9.088-1.981 2.578-4.712 4.464-8.186 5.665-3.48 1.2-7.799 1.803-12.955 1.803-5.163 0-9.482-.603-12.956-1.803-3.479-1.201-6.21-3.087-8.192-5.665-1.975-2.578-3.372-5.608-4.178-9.088-.813-3.48-1.22-7.766-1.22-12.866zm19.344-9.354v23.389h7.468c2.458 0 4.243-.286 5.354-.857 1.111-.566 1.664-1.874 1.664-3.913V107.21h-7.557c-2.401 0-4.154.286-5.265.851-1.105.572-1.664 1.874-1.664 3.919zm82.774-4.414h-13.051v41.838h-17.991v-41.838h-13.044v-14.39h44.086v14.39zm43.635 20.608h-17.992v6.833h22.043v14.397h-40.04V93.176h39.589l-2.248 14.39h-19.344v7.557h17.992v13.051z"/></svg>